<svg width="45" height="45" viewBox="0 0 45 45" fill="none" xmlns="http://www.w3.org/2000/svg">
<path d="M40.5703 10.793L23.5898 1.01953C23.3086 0.84375 22.9219 0.773438 22.5 0.773438C22.0781 0.773438 21.6914 0.878906 21.4102 1.01953L4.53516 10.8281C3.9375 11.1797 3.51562 12.0586 3.51562 12.7266V32.3086C3.51562 32.6953 3.58594 33.1523 3.86719 33.5391L41.4141 11.7422C41.2031 11.3203 40.8867 11.0039 40.5703 10.793V10.793Z" fill="#659AD3"/>
<path d="M3.76172 33.5039C3.9375 33.7852 4.18359 34.0312 4.42969 34.1719L21.375 43.9805C21.6562 44.1563 22.043 44.2266 22.4648 44.2266C22.8867 44.2266 23.2734 44.1211 23.5547 43.9805L40.4297 34.1719C41.0273 33.8203 41.4492 32.9414 41.4492 32.2734V12.6914C41.4492 12.375 41.4141 12.0234 41.2383 11.707L3.76172 33.5039V33.5039Z" fill="#03599C"/>
<path d="M29.9883 26.7539C28.5117 29.3555 25.6992 31.1133 22.5 31.1133C17.7539 31.1133 13.8867 27.2461 13.8867 22.5C13.8867 17.7539 17.7539 13.8867 22.5 13.8867C25.6992 13.8867 28.5117 15.6445 29.9883 18.2812L34.5586 15.6445C32.168 11.4609 27.668 8.61328 22.5 8.61328C14.8359 8.61328 8.61328 14.8359 8.61328 22.5C8.61328 30.1641 14.8359 36.3867 22.5 36.3867C27.6328 36.3867 32.1328 33.5742 34.5234 29.4258L29.9883 26.7539V26.7539Z" fill="white"/>
</svg>
