<svg width="45" height="45" viewBox="0 0 45 45" fill="none" xmlns="http://www.w3.org/2000/svg">
<path d="M6.61421 40.1212L3.07961 0.475159H41.9202L38.3821 40.1152L22.4764 44.5249L6.61421 40.1212V40.1212Z" fill="#1572B6"/>
<path d="M22.5003 41.1547L35.3531 37.5913L38.3769 3.71681H22.5003V41.1547Z" fill="#33A9DC"/>
<path d="M22.5003 18.0804H28.9346L29.379 13.1012H22.5003V8.23872H34.6932L34.5765 9.54336L33.3812 22.9428H22.5003V18.0804Z" fill="white"/>
<path d="M22.5292 30.7085L22.5077 30.7149L17.0926 29.2527L16.7463 25.3746H11.8659L12.5469 33.0095L22.507 35.7739L22.5292 35.7675V30.7085V30.7085Z" fill="#EBEBEB"/>
<path d="M28.5212 22.7373L27.9355 29.2489L22.5123 30.7129V35.7718L32.4805 33.0093L32.5536 32.1877L33.3995 22.7373H28.5212Z" fill="white"/>
<path d="M22.5168 8.23872V13.1012H10.7718L10.6744 12.0085L10.453 9.54336L10.3366 8.23872H22.5168V8.23872ZM22.5003 18.0811V22.9435H17.1534L17.056 21.8509L16.8342 19.3857L16.7182 18.0811H22.5003V18.0811Z" fill="#EBEBEB"/>
</svg>
